<svg version="1.1" xmlns="http://www.w3.org/2000/svg" viewBox="0 0 2624.7524801587297 848.8014885870235" width="2624.7524801587297" height="848.8014885870235">
  <!-- svg-source:excalidraw -->
  
  <defs>
    <style>
      @font-face {
        font-family: "Virgil";
        src: url("https://unpkg.com/@excalidraw/excalidraw@0.12.0/dist/excalidraw-assets/Virgil.woff2");
      }
      @font-face {
        font-family: "Cascadia";
        src: url("https://unpkg.com/@excalidraw/excalidraw@0.12.0/dist/excalidraw-assets/Cascadia.woff2");
      }
    </style>
  </defs>
  <rect x="0" y="0" width="2624.7524801587297" height="848.8014885870235" fill="#ffffff"></rect><g stroke-linecap="round" transform="translate(10 638.7817460317459) rotate(0 198 50)"><path d="M-0.11 0.57 L396.28 -1.76 L396.68 100.95 L1.97 100.96" stroke="none" stroke-width="0" fill="#ced4da"></path><path d="M-0.36 0.29 C88.31 -1.02, 175.29 -1.07, 394.96 -1.01 M-0.41 -0.15 C83.59 2.81, 167.62 1.77, 395.98 0.45 M396.44 -1.63 C395.21 33.95, 396.34 66.7, 397.44 101.99 M395.26 -0.62 C394.93 34.8, 396.22 69.56, 396.7 100.15 M397.09 99 C265.06 101.32, 133.35 101.18, 1.09 101.13 M395.47 100.47 C255.31 101.54, 115.09 101.54, -0.39 99.86 M0.64 99.46 C1.38 72.75, -0.63 44.25, 1.41 -1.65 M0.48 99.17 C0.76 66.71, 0.65 33.4, -0.04 -0.4" stroke="#000000" stroke-width="1" fill="none"></path></g><g stroke-linecap="round" transform="translate(72 528.7817460317459) rotate(0 54 53)"><path d="M0.04 0.89 L108.47 0.27 L107.78 106.51 L0.62 104.13" stroke="none" stroke-width="0" fill="#ced4da"></path><path d="M1.98 -0.27 C42.03 1.08, 83.83 -2.21, 106.63 1.72 M0.26 -0.24 C37.92 -0.11, 77.27 0.71, 107.69 0.69 M108.71 -0.34 C108.65 40.92, 107.98 82.34, 109.62 106.76 M108.58 -0.16 C107.73 31.22, 107.91 62.19, 107.15 105.07 M109.75 106.34 C81.35 106.26, 49.62 104.71, -1.93 106.12 M108.71 105.59 C71.3 106.02, 33.55 106.35, -0.14 106 M-0.25 104.13 C-1.59 77.05, -1.9 45.91, 0.84 -0.26 M0.37 106.61 C1.36 83.18, 1.44 58.93, 0.91 0.29" stroke="#000000" stroke-width="1" fill="none"></path></g><g stroke-linecap="round" transform="translate(313 242.7817460317459) rotate(0 51.5 49.5)"><path d="M62.62 0.61 C70.81 1.56, 79.67 7.09, 85.82 12.73 C91.97 18.37, 96.86 26.67, 99.52 34.46 C102.19 42.26, 103.41 51.39, 101.8 59.5 C100.19 67.61, 95.67 77, 89.85 83.15 C84.04 89.29, 75.18 93.95, 66.9 96.36 C58.62 98.76, 48.3 99.32, 40.16 97.58 C32.02 95.84, 24.22 91.27, 18.04 85.93 C11.86 80.58, 5.91 73.36, 3.06 65.49 C0.21 57.63, -0.62 46.8, 0.93 38.71 C2.48 30.63, 6.56 22.94, 12.35 17.01 C18.14 11.07, 26.72 5.54, 35.66 3.13 C44.61 0.71, 60.44 2.42, 66.02 2.52 C71.6 2.62, 69.34 3.01, 69.15 3.74 M52.23 -0.16 C60.34 -0.78, 70.96 2.98, 78.08 7.35 C85.21 11.72, 90.71 18.86, 94.96 26.07 C99.22 33.29, 103.5 42.32, 103.6 50.66 C103.7 59, 99.83 69.26, 95.58 76.13 C91.32 83, 85.72 87.95, 78.06 91.88 C70.39 95.8, 58.26 99.62, 49.58 99.66 C40.89 99.7, 33.26 96.65, 25.94 92.11 C18.62 87.56, 9.75 79.58, 5.65 72.4 C1.56 65.21, 1.34 57.13, 1.37 48.97 C1.4 40.82, 1.45 30.78, 5.84 23.47 C10.22 16.15, 19.77 8.82, 27.66 5.1 C35.55 1.39, 49.05 1.69, 53.15 1.19 C57.25 0.69, 52.33 1.25, 52.26 2.11" stroke="#000000" stroke-width="1" fill="none"></path></g><g transform="translate(318 265.2817460317459) rotate(0 46.5 27)"><text x="46.5" y="19" font-family="Virgil, Segoe UI Emoji" font-size="20px" fill="#000000" text-anchor="middle" style="white-space: pre;" direction="ltr">Scene</text><text x="46.5" y="46" font-family="Virgil, Segoe UI Emoji" font-size="20px" fill="#000000" text-anchor="middle" style="white-space: pre;" direction="ltr">Root</text></g><g stroke-linecap="round" transform="translate(589 440.7817460317459) rotate(0 61.5 149)"><path d="M34.77 14.38 C40.43 5.2, 48.62 1.1, 55.83 -0.37 C63.03 -1.85, 71.27 1.13, 78.01 5.53 C84.74 9.93, 90.65 16.23, 96.25 26 C101.86 35.77, 107.37 49.92, 111.61 64.15 C115.85 78.38, 119.78 94.95, 121.7 111.4 C123.61 127.85, 123.76 145.96, 123.09 162.85 C122.42 179.75, 120.72 197.55, 117.68 212.77 C114.65 227.98, 109.87 242.23, 104.87 254.14 C99.86 266.04, 94.02 276.91, 87.66 284.21 C81.29 291.51, 73.6 296.43, 66.69 297.93 C59.77 299.43, 52.99 297.55, 46.17 293.2 C39.34 288.85, 31.7 281.64, 25.73 271.83 C19.77 262.03, 14.28 248.25, 10.37 234.37 C6.45 220.48, 3.85 205, 2.26 188.52 C0.67 172.03, 0.08 152.55, 0.82 135.46 C1.57 118.37, 3.85 101.14, 6.71 85.99 C9.57 70.83, 12.17 57.51, 17.99 44.53 C23.81 31.55, 36.95 14.27, 41.63 8.09 C46.31 1.9, 46.05 5.12, 46.08 7.44 M86.83 12.14 C93.55 16.29, 99.77 28.27, 104.71 40.37 C109.65 52.46, 113.71 69.1, 116.48 84.71 C119.24 100.32, 120.56 117.23, 121.3 134.03 C122.04 150.82, 122.48 168.89, 120.9 185.49 C119.33 202.09, 115.54 219.82, 111.85 233.61 C108.17 247.4, 104.51 258.25, 98.78 268.24 C93.04 278.23, 84.45 288.46, 77.44 293.57 C70.43 298.69, 63.7 300.13, 56.74 298.95 C49.78 297.76, 41.93 293.56, 35.68 286.46 C29.43 279.36, 23.97 268.58, 19.24 256.34 C14.51 244.1, 10.24 228.24, 7.32 213.03 C4.39 197.81, 2.73 181.77, 1.68 165.05 C0.63 148.32, -0.55 129.27, 1 112.69 C2.56 96.1, 7.06 79.81, 11.01 65.54 C14.96 51.27, 19.08 36.96, 24.69 27.05 C30.31 17.14, 37.69 10.31, 44.69 6.08 C51.68 1.86, 59.63 0.7, 66.67 1.7 C73.7 2.7, 83.75 9.94, 86.88 12.08 C90.01 14.22, 86.07 11.92, 85.45 14.54" stroke="#000000" stroke-width="1" fill="none"></path></g><g transform="translate(621.59375 397.2817460317459) rotate(0 31 12.5)"><text x="0" y="18" font-family="Virgil, Segoe UI Emoji" font-size="20px" fill="#000000" text-anchor="start" style="white-space: pre;" direction="ltr">Player</text></g><g stroke-linecap="round"><g transform="translate(127 514.7817460317459) rotate(0 92.25456791445606 -92.39881915993523)"><path d="M-0.61 -0.97 C30.37 -31.91, 154.17 -155.11, 185.12 -185.94 M1.28 1.14 C32.26 -29.66, 154.15 -153.86, 184.75 -184.89" stroke="#000000" stroke-width="1" fill="none"></path></g><g transform="translate(127 514.7817460317459) rotate(0 92.25456791445606 -92.39881915993523)"><path d="M170.69 -155.74 C173.75 -162.21, 176.73 -171.14, 184.25 -183.4 M171.63 -156.81 C175.02 -162.9, 178.77 -168.98, 183.8 -184.48" stroke="#000000" stroke-width="1" fill="none"></path></g><g transform="translate(127 514.7817460317459) rotate(0 92.25456791445606 -92.39881915993523)"><path d="M156.06 -170.13 C162.54 -173.13, 168.99 -178.65, 184.25 -183.4 M157 -171.2 C163.43 -174.26, 170.35 -177.23, 183.8 -184.48" stroke="#000000" stroke-width="1" fill="none"></path></g></g><g stroke-linecap="round"><g transform="translate(273 631.7817460317459) rotate(0 35.80707624106674 -140.6227674703207)"><path d="M0.26 -1.02 C12.01 -47.84, 58.35 -233.7, 70.32 -280.46 M-1.06 1.05 C11.09 -46.16, 60.52 -235.36, 72.67 -282.3" stroke="#000000" stroke-width="1" fill="none"></path></g><g transform="translate(273 631.7817460317459) rotate(0 35.80707624106674 -140.6227674703207)"><path d="M73.8 -253.57 C75.48 -259.26, 72.78 -268.53, 72.85 -283.89 M75.33 -252.7 C73.74 -260.05, 74.29 -266.57, 71.75 -281.43" stroke="#000000" stroke-width="1" fill="none"></path></g><g transform="translate(273 631.7817460317459) rotate(0 35.80707624106674 -140.6227674703207)"><path d="M53.94 -258.74 C61.35 -262.98, 64.37 -270.77, 72.85 -283.89 M55.47 -257.86 C58.49 -264.12, 63.61 -269.45, 71.75 -281.43" stroke="#000000" stroke-width="1" fill="none"></path></g></g><g stroke-linecap="round"><g transform="translate(609 452.7817460317459) rotate(0 -90.91409486985299 -65.79432370141149)"><path d="M0.86 -0.44 C-29.58 -22.27, -151.09 -109.24, -181.49 -131.14 M-0.15 -1.72 C-30.89 -23.34, -152.29 -108.14, -182.69 -129.68" stroke="#000000" stroke-width="1" fill="none"></path></g><g transform="translate(609 452.7817460317459) rotate(0 -90.91409486985299 -65.79432370141149)"><path d="M-154.47 -122.68 C-165.48 -125.62, -178.19 -128.45, -183.02 -127.7 M-154.44 -121.47 C-165.8 -124.59, -176.83 -127.42, -181.97 -129.27" stroke="#000000" stroke-width="1" fill="none"></path></g><g transform="translate(609 452.7817460317459) rotate(0 -90.91409486985299 -65.79432370141149)"><path d="M-166.27 -105.89 C-172.56 -115.6, -180.56 -125.12, -183.02 -127.7 M-166.24 -104.68 C-172.86 -114.27, -179.3 -123.63, -181.97 -129.27" stroke="#000000" stroke-width="1" fill="none"></path></g></g><g stroke-linecap="round" transform="translate(948.59375 633.2817460317459) rotate(0 198 50)"><path d="M-0.5 0.18 C92.61 0.24, 181.99 -0.58, 395.44 -0.72 M397.82 -1.55 C396.18 23.45, 397.34 47.39, 395.48 99.39 M395.86 99.42 C310.59 100.36, 222.85 100.28, -0.84 99.19 M0.92 100.78 C-2.47 69.44, 0.7 41.85, -0.68 1.85" stroke="#000000" stroke-width="1.5" fill="none" stroke-dasharray="8 9"></path></g><g stroke-linecap="round" transform="translate(1010.59375 523.2817460317459) rotate(0 54 53)"><path d="M0.31 1.9 C39.07 -1.4, 76.38 -0.51, 106.75 -1.41 M106.45 0.19 C107.5 33.02, 108.49 62.82, 107.39 104.35 M107 107.23 C67.45 104.27, 27.96 104.41, -1.42 105.93 M0.78 104.48 C-1.01 65.74, 1.07 21.49, 1.85 -0.19" stroke="#000000" stroke-width="1.5" fill="none" stroke-dasharray="8 9"></path></g><g stroke-linecap="round" transform="translate(1251.59375 237.2817460317459) rotate(0 51.5 49.5)"><path d="M55.38 -0.45 C63.6 -0.41, 73.27 3.9, 80.23 8.87 C87.2 13.84, 93.54 21.89, 97.17 29.38 C100.81 36.87, 102.57 45.61, 102.04 53.79 C101.51 61.97, 98.66 71.76, 94.01 78.47 C89.36 85.18, 81.99 90.8, 74.12 94.05 C66.26 97.31, 55.4 98.58, 46.83 98 C38.26 97.42, 29.72 95.24, 22.71 90.58 C15.69 85.92, 8.41 77.67, 4.76 70.03 C1.11 62.38, 0.19 52.95, 0.8 44.71 C1.42 36.46, 3.76 27.32, 8.44 20.54 C13.12 13.75, 19.38 6.93, 28.89 3.98 C38.4 1.03, 57.92 2.38, 65.5 2.83 C73.07 3.27, 74.5 6.14, 74.33 6.64 M39.61 2.61 C47.17 0.18, 58.27 0.79, 66.62 3.11 C74.97 5.44, 83.66 10.57, 89.71 16.56 C95.76 22.55, 101.17 31.3, 102.93 39.05 C104.69 46.8, 102.96 55.35, 100.27 63.05 C97.58 70.76, 93.21 79.65, 86.8 85.28 C80.39 90.92, 70.1 94.89, 61.79 96.87 C53.48 98.85, 44.75 99.49, 36.93 97.15 C29.1 94.8, 20.93 88.98, 14.83 82.82 C8.74 76.66, 2.3 68.09, 0.37 60.17 C-1.56 52.26, 0.42 43.21, 3.25 35.36 C6.07 27.5, 11.21 18.79, 17.33 13.05 C23.45 7.3, 35.89 2.7, 39.95 0.89 C44.02 -0.92, 41.48 1.4, 41.74 2.2" stroke="#000000" stroke-width="1" fill="none"></path></g><g transform="translate(1256.59375 259.7817460317459) rotate(0 46.5 27)"><text x="46.5" y="19" font-family="Virgil, Segoe UI Emoji" font-size="20px" fill="#000000" text-anchor="middle" style="white-space: pre;" direction="ltr">Scene</text><text x="46.5" y="46" font-family="Virgil, Segoe UI Emoji" font-size="20px" fill="#000000" text-anchor="middle" style="white-space: pre;" direction="ltr">Root</text></g><g stroke-linecap="round" transform="translate(1527.59375 435.2817460317459) rotate(0 61.5 149)"><path d="M44.39 5.39 C50.47 -0.91, 58.43 0.01, 65.41 1.37 C72.39 2.73, 79.68 6.53, 86.26 13.54 C92.84 20.56, 99.63 31.6, 104.88 43.45 C110.13 55.3, 114.84 69.57, 117.77 84.66 C120.69 99.74, 121.76 116.94, 122.41 133.97 C123.07 151, 123.41 170.34, 121.68 186.84 C119.95 203.34, 116.02 219.13, 112.04 232.95 C108.07 246.77, 103.63 259.92, 97.81 269.75 C91.98 279.58, 84.09 287.42, 77.11 291.93 C70.12 296.44, 62.78 297.9, 55.92 296.83 C49.05 295.76, 42.17 292.37, 35.94 285.51 C29.7 278.65, 23.41 267.88, 18.48 255.68 C13.56 243.49, 9.48 227.6, 6.37 212.32 C3.26 197.05, 0.47 180.88, -0.17 164.04 C-0.8 147.2, 0.57 127.88, 2.56 111.28 C4.54 94.68, 7.78 78.34, 11.76 64.45 C15.73 50.56, 20.56 37.77, 26.4 27.92 C32.25 18.08, 43.17 8.96, 46.81 5.39 C50.45 1.81, 48.18 4.15, 48.24 6.46 M50.86 2.92 C57.6 -2.24, 66.02 -0.96, 72.67 1.71 C79.33 4.37, 84.7 10.44, 90.78 18.91 C96.85 27.38, 104.27 39.61, 109.12 52.53 C113.97 65.45, 117.58 80.67, 119.86 96.43 C122.14 112.18, 122.65 130.06, 122.83 147.07 C123 164.07, 123.16 182.44, 120.91 198.46 C118.65 214.48, 114.17 230.2, 109.3 243.18 C104.44 256.17, 97.86 267.46, 91.71 276.38 C85.56 285.31, 79.16 293.6, 72.4 296.75 C65.64 299.89, 58.19 298.09, 51.17 295.24 C44.15 292.4, 36.24 288.06, 30.28 279.69 C24.32 271.32, 19.7 258.24, 15.4 245.02 C11.1 231.8, 6.92 216.07, 4.47 200.36 C2.03 184.65, 0.69 167.5, 0.74 150.76 C0.79 134.02, 2.79 115.76, 4.79 99.9 C6.78 84.04, 8.6 68.85, 12.69 55.58 C16.78 42.32, 23.32 29.09, 29.32 20.3 C35.32 11.5, 45.36 5.12, 48.67 2.83 C51.99 0.53, 48.72 4.34, 49.23 6.54" stroke="#000000" stroke-width="1" fill="none"></path></g><g transform="translate(1560.1875 391.7817460317459) rotate(0 31 12.5)"><text x="0" y="18" font-family="Virgil, Segoe UI Emoji" font-size="20px" fill="#000000" text-anchor="start" style="white-space: pre;" direction="ltr">Player</text></g><g stroke-linecap="round"><g transform="translate(1547.59375 447.2817460317459) rotate(0 -90.45669400316683 -65.40646185026971)"><path d="M-0.75 -0.85 C-30.81 -22.77, -151.15 -110.29, -181.01 -132.14 M1.06 1.32 C-29.11 -20.44, -151.78 -109.13, -181.97 -131.2" stroke="#000000" stroke-width="1" fill="none"></path></g><g transform="translate(1547.59375 447.2817460317459) rotate(0 -90.45669400316683 -65.40646185026971)"><path d="M-154.54 -122.96 C-162.08 -123.33, -168.83 -126.98, -181.47 -129.85 M-153.96 -122.29 C-163.45 -126.24, -175.21 -128.59, -182.57 -132" stroke="#000000" stroke-width="1" fill="none"></path></g><g transform="translate(1547.59375 447.2817460317459) rotate(0 -90.45669400316683 -65.40646185026971)"><path d="M-166.6 -106.35 C-171.09 -110.73, -174.87 -118.47, -181.47 -129.85 M-166.02 -105.68 C-170.95 -115.82, -178.2 -124.39, -182.57 -132" stroke="#000000" stroke-width="1" fill="none"></path></g></g><g stroke-linecap="round" transform="translate(1497 456.7817460317459) rotate(0 7.5 28)"><path d="M0.92 -0.09 C5.32 -0.79, 7.54 1.48, 15.32 1.28 M-0.66 0.59 C6.44 0.49, 11.36 0.03, 15.74 -0.4 M14.97 -1.39 C12.76 19.89, 12.99 39.91, 15.89 56.81 M14.63 0.52 C14.4 13.96, 15.43 26.61, 15.51 55.26 M16.07 56.99 C9.99 56.58, 6.25 55.19, -0.42 56.09 M14.3 56.39 C10.9 56.14, 5.05 56.49, -0.71 56.38 M1.9 55.78 C0.68 44.25, -1.13 31.67, -0.55 -0.53 M-0.83 56.96 C0.17 36.97, -0.8 17.03, -0.15 0.81" stroke="#000000" stroke-width="1" fill="none"></path></g><g stroke-linecap="round"><g transform="translate(1135 543.7817460317459) rotate(0 175.73631699606779 -34.51357063694856)"><path d="M-0.47 -0.54 C58.09 -11.92, 293.06 -57.42, 351.94 -69.14 M1.49 1.79 C59.83 -9.84, 292.46 -58.85, 350.96 -70.81" stroke="#000000" stroke-width="1" fill="none"></path></g><g transform="translate(1135 543.7817460317459) rotate(0 175.73631699606779 -34.51357063694856)"><path d="M324.54 -55.13 C335.95 -59.15, 342.02 -65.22, 349.75 -71.89 M325.87 -54.24 C331.43 -58.84, 340.18 -63.63, 350.39 -70.31" stroke="#000000" stroke-width="1" fill="none"></path></g><g transform="translate(1135 543.7817460317459) rotate(0 175.73631699606779 -34.51357063694856)"><path d="M320.36 -75.23 C333.09 -72.17, 340.63 -71.19, 349.75 -71.89 M321.7 -74.33 C328.4 -73.48, 338.29 -72.81, 350.39 -70.31" stroke="#000000" stroke-width="1" fill="none"></path></g></g><g stroke-linecap="round"><g transform="translate(1359 630.7817460317459) rotate(0 62.54032671996856 -59.72583147229162)"><path d="M1.04 0.64 C22.03 -19.28, 104.18 -98.41, 124.96 -118.32 M0.13 -0.08 C21.05 -19.84, 103.13 -100.54, 123.98 -120.09" stroke="#000000" stroke-width="1" fill="none"></path></g><g transform="translate(1359 630.7817460317459) rotate(0 62.54032671996856 -59.72583147229162)"><path d="M111.85 -93.22 C114.5 -97.94, 116.54 -103.1, 125.23 -119.98 M111.69 -93.32 C114.79 -100.12, 116.88 -107.36, 124.41 -119.58" stroke="#000000" stroke-width="1" fill="none"></path></g><g transform="translate(1359 630.7817460317459) rotate(0 62.54032671996856 -59.72583147229162)"><path d="M97.62 -108 C103.48 -109.66, 108.58 -111.64, 125.23 -119.98 M97.46 -108.11 C104.51 -110.9, 110.42 -114.17, 124.41 -119.58" stroke="#000000" stroke-width="1" fill="none"></path></g></g><g stroke-linecap="round"><g transform="translate(549.4598214285713 466.13888888888874) rotate(0 -250.45241625479287 -129.2136065363884)"><path d="M1.2 1.15 C-82.63 -42.25, -418.1 -216.13, -502.1 -259.58" stroke="#000000" stroke-width="1.5" fill="none" stroke-dasharray="8 9"></path></g></g><g stroke-linecap="round"><g transform="translate(555.1741071428571 508.9960317460316) rotate(0 -254.9922598958015 165.42256976366042)"><path d="M-0.11 1.04 C-85.12 55.89, -424.96 274.82, -509.88 329.81" stroke="#000000" stroke-width="1.5" fill="none" stroke-dasharray="8 9"></path></g></g><g stroke-linecap="round" transform="translate(1973.59375 514.5674603174601) rotate(0 54 53)"><path d="M0.78 1.48 L106.85 -1.2 L108.21 104.98 L1.58 107.99" stroke="none" stroke-width="0" fill="#ced4da"></path><path d="M1.14 -1.39 C42.02 0.59, 82.83 0.46, 107.42 -0.94 M-0.7 -0.8 C31.44 0.73, 64.44 0.69, 108.46 0.52 M109.66 0.57 C106.99 22.44, 106.16 46.51, 109.09 104.68 M108.08 0.93 C106.59 28.36, 106.57 56.05, 107.95 105.63 M109.4 106.68 C76.52 104.83, 44.38 106.38, 1.42 104.3 M107.03 105.62 C70.09 104.32, 30.69 104.4, -0.82 106.22 M-1.28 104.6 C-1.15 84.58, -1.3 60.87, -1.91 -0.74 M0.38 106.76 C0.56 66.74, 1.85 27.34, 0.24 -0.55" stroke="#000000" stroke-width="1" fill="none"></path></g><g stroke-linecap="round" transform="translate(2214.59375 228.56746031746013) rotate(0 51.5 49.5)"><path d="M51.37 -0.29 C59.37 -0.98, 68.79 2.26, 76.37 6.35 C83.95 10.43, 92.52 17.24, 96.84 24.22 C101.16 31.21, 102.43 39.88, 102.3 48.25 C102.16 56.62, 99.97 67.04, 96.03 74.44 C92.08 81.85, 85.87 88.5, 78.6 92.68 C71.34 96.86, 61.3 99.56, 52.43 99.52 C43.55 99.48, 32.78 96.47, 25.36 92.46 C17.94 88.45, 12.07 82.62, 7.89 75.47 C3.71 68.31, 0.56 58.05, 0.29 49.52 C0.01 40.99, 2.06 31.31, 6.22 24.29 C10.39 17.27, 17.42 11.51, 25.27 7.41 C33.12 3.31, 48.17 0.68, 53.31 -0.31 C58.46 -1.3, 56.06 0.42, 56.14 1.46 M33.67 3.09 C40.84 -0.19, 51.17 -0.68, 59.36 0.45 C67.54 1.58, 75.88 4.52, 82.78 9.88 C89.68 15.24, 97.58 24.66, 100.76 32.59 C103.93 40.52, 103.65 49.22, 101.83 57.45 C100.01 65.68, 95.04 75.76, 89.85 81.95 C84.66 88.13, 78.34 91.73, 70.68 94.56 C63.03 97.38, 52.73 100.27, 43.91 98.9 C35.08 97.52, 24.62 91.53, 17.75 86.29 C10.89 81.06, 5.79 75.15, 2.72 67.49 C-0.35 59.83, -1.97 48.78, -0.68 40.34 C0.6 31.9, 4.71 23.27, 10.44 16.86 C16.18 10.44, 29.69 3.8, 33.71 1.86 C37.74 -0.08, 34.5 4.42, 34.58 5.23" stroke="#000000" stroke-width="1" fill="none"></path></g><g transform="translate(2219.59375 251.06746031746013) rotate(0 46.5 27)"><text x="46.5" y="19" font-family="Virgil, Segoe UI Emoji" font-size="20px" fill="#000000" text-anchor="middle" style="white-space: pre;" direction="ltr">Scene</text><text x="46.5" y="46" font-family="Virgil, Segoe UI Emoji" font-size="20px" fill="#000000" text-anchor="middle" style="white-space: pre;" direction="ltr">Root</text></g><g stroke-linecap="round" transform="translate(2490.59375 426.56746031746013) rotate(0 61.5 149)"><path d="M41.73 7.46 C47.86 0.21, 57.35 -0.46, 64.32 -0.07 C71.29 0.31, 77.25 3.37, 83.55 9.77 C89.85 16.18, 96.61 26.83, 102.11 38.36 C107.62 49.89, 113.16 63.99, 116.61 78.94 C120.06 93.88, 122.1 111.35, 122.82 128.05 C123.54 144.75, 122.29 162.43, 120.92 179.12 C119.55 195.8, 118.08 213.75, 114.57 228.15 C111.07 242.56, 105.59 255.28, 99.89 265.52 C94.19 275.77, 87.07 284.13, 80.35 289.63 C73.63 295.12, 66.63 298.91, 59.58 298.48 C52.54 298.05, 44.7 293.4, 38.09 287.06 C31.48 280.72, 25.03 271.51, 19.92 260.43 C14.81 249.34, 10.76 235.46, 7.43 220.54 C4.09 205.62, 1.07 187.83, -0.08 170.9 C-1.22 153.97, -0.99 135.71, 0.54 118.94 C2.08 102.17, 5.35 84.94, 9.13 70.3 C12.92 55.66, 17 42.06, 23.25 31.1 C29.5 20.15, 41.6 9.08, 46.65 4.58 C51.7 0.07, 53.17 1.91, 53.54 4.05 M82.96 9.2 C89.2 12.39, 94.48 21.92, 99.65 32.76 C104.82 43.59, 110.49 59.48, 113.98 74.2 C117.47 88.91, 119.47 104.64, 120.62 121.05 C121.76 137.46, 121.76 155.94, 120.87 172.65 C119.99 189.36, 118.41 206.15, 115.3 221.32 C112.19 236.48, 107.74 252.58, 102.19 263.63 C96.63 274.68, 88.75 281.74, 81.97 287.62 C75.18 293.49, 68.44 298.58, 61.5 298.87 C54.56 299.17, 47.1 295.33, 40.33 289.39 C33.55 283.45, 25.99 274.32, 20.85 263.24 C15.72 252.16, 12.99 237.37, 9.54 222.9 C6.09 208.44, 1.4 193.03, 0.14 176.44 C-1.11 159.86, 0.62 140.04, 2 123.4 C3.38 106.76, 5.05 91.18, 8.42 76.59 C11.79 62.01, 17.08 46.99, 22.21 35.88 C27.35 24.77, 32.59 16.05, 39.25 9.92 C45.91 3.8, 55.19 -0.67, 62.19 -0.86 C69.19 -1.05, 78.11 6.55, 81.24 8.8 C84.37 11.05, 80.91 10.21, 80.97 12.63" stroke="#000000" stroke-width="1" fill="none"></path></g><g transform="translate(2523.1875 383.06746031746013) rotate(0 31 12.5)"><text x="0" y="18" font-family="Virgil, Segoe UI Emoji" font-size="20px" fill="#000000" text-anchor="start" style="white-space: pre;" direction="ltr">Player</text></g><g stroke-linecap="round"><g transform="translate(2510.59375 438.56746031746013) rotate(0 -90.72185227653927 -65.57682064771653)"><path d="M-0.77 0.41 C-30.99 -21.6, -151.3 -109.86, -181.35 -131.57 M1.03 -0.42 C-29.37 -22.32, -151.99 -108.47, -182.48 -130.32" stroke="#000000" stroke-width="1" fill="none"></path></g><g transform="translate(2510.59375 438.56746031746013) rotate(0 -90.72185227653927 -65.57682064771653)"><path d="M-152.86 -122.97 C-163.15 -125.06, -168.87 -127.58, -183.88 -131.92 M-153 -121.93 C-160.86 -125.05, -169.3 -125.63, -181.65 -130.04" stroke="#000000" stroke-width="1" fill="none"></path></g><g transform="translate(2510.59375 438.56746031746013) rotate(0 -90.72185227653927 -65.57682064771653)"><path d="M-164.73 -106.23 C-171.54 -113.24, -173.73 -120.75, -183.88 -131.92 M-164.87 -105.19 C-169.63 -112.93, -174.88 -118.02, -181.65 -130.04" stroke="#000000" stroke-width="1" fill="none"></path></g></g><g stroke-linecap="round"><g transform="translate(2098 535.0674603174601) rotate(0 55.19872532751856 -113.89874821091021)"><path d="M-0.35 -0.57 C18.24 -38.64, 92.24 -189.8, 110.74 -228.04 M1.67 1.75 C20.16 -36.66, 91.74 -191.06, 109.76 -229.55" stroke="#000000" stroke-width="1" fill="none"></path></g><g transform="translate(2098 535.0674603174601) rotate(0 55.19872532751856 -113.89874821091021)"><path d="M106.21 -199.78 C109.63 -206.99, 106.88 -215.37, 109.14 -228.38 M107.68 -200.46 C107.89 -210.72, 109.88 -222.99, 109.33 -229.99" stroke="#000000" stroke-width="1" fill="none"></path></g><g transform="translate(2098 535.0674603174601) rotate(0 55.19872532751856 -113.89874821091021)"><path d="M87.61 -208.45 C95.45 -213.55, 97.1 -219.89, 109.14 -228.38 M89.08 -209.13 C96.68 -216.05, 106.01 -224.9, 109.33 -229.99" stroke="#000000" stroke-width="1" fill="none"></path></g></g><g stroke-linecap="round"><g transform="translate(2195.561137593456 607.5505494876511) rotate(0 38.27860472566476 -131.33200071255365)"><path d="M-0.57 -0.07 C12.22 -43.78, 64.51 -218.71, 77.12 -262.59 M1.34 -1.16 C14.03 -44.64, 64.09 -217.57, 76.79 -261.14" stroke="#000000" stroke-width="1" fill="none"></path></g><g transform="translate(2195.561137593456 607.5505494876511) rotate(0 38.27860472566476 -131.33200071255365)"><path d="M78.66 -229.25 C77.93 -242.62, 75.94 -251.85, 77.96 -259.24 M77.98 -231.34 C78.69 -240.98, 77.52 -252.84, 76.35 -261.99" stroke="#000000" stroke-width="1" fill="none"></path></g><g transform="translate(2195.561137593456 607.5505494876511) rotate(0 38.27860472566476 -131.33200071255365)"><path d="M58.96 -234.97 C64.79 -246.34, 69.39 -253.65, 77.96 -259.24 M58.28 -237.06 C66 -244.77, 71.8 -254.61, 76.35 -261.99" stroke="#000000" stroke-width="1" fill="none"></path></g></g><g stroke-linecap="round" transform="translate(1861.40625 675.5674603174601) rotate(0 259.9999999999998 47)"><path d="M-1.34 1.88 L518.24 -0.03 L520.44 94.3 L-0.4 93.19" stroke="none" stroke-width="0" fill="#ced4da"></path><path d="M0.2 0.48 C169.79 1.11, 340.64 1.2, 520.64 0.12 M-0.29 -0.14 C150.98 -2.23, 301.64 -1.95, 519.75 -0.27 M520.98 -1.65 C521.09 27.69, 518.77 52.18, 520.34 92.32 M519 -0.97 C520.23 31.35, 519.48 64.76, 519.48 93.77 M519.3 93.95 C355.93 91.94, 191.05 92.2, -0.22 94.17 M519.83 94.11 C377.74 95.79, 235.27 96.04, 0.38 94.27 M1.82 94.33 C-1.54 74.14, 1.69 54.96, -0.29 -1.13 M0.67 94.47 C-0.59 70.87, -0.66 48.82, -0.72 0.76" stroke="#000000" stroke-width="1" fill="none"></path></g><g stroke-linecap="round" transform="translate(1911.59375 624.5674603174601) rotate(0 198 50)"><path d="M-1.1 0.78 L397.48 -1.15 L394.8 100.21 L-1.02 101.58" stroke="none" stroke-width="0" fill="#ced4da"></path><path d="M0.24 0.65 C84.81 2.19, 171.68 1.48, 396.39 -0.33 M-0.08 -0.4 C99.69 -2.4, 200.63 -1.68, 396.31 0.26 M397.51 1.66 C395.77 34.36, 394.31 68.75, 395.85 101.09 M396.2 0.08 C396.57 22.68, 396.06 46.06, 396.19 99.95 M394.95 100.8 C292.32 97.49, 187.77 96.76, 0.78 100.82 M395.6 99.44 C310.72 101.07, 225.36 100.44, -0.48 99.53 M1.52 98.72 C-0.53 67.23, 2.04 34.87, 0.04 -1.91 M-0.58 100.38 C0.03 73.2, -0.47 48.18, 0.38 0.24" stroke="#000000" stroke-width="1" fill="none"></path></g><g stroke-linecap="round"><g transform="translate(2345.2867627624005 659.1138941477216) rotate(0 -26.423686990887063 -161.0367792467276)"><path d="M1.07 1.15 C-7.75 -52.85, -45.03 -269.08, -53.92 -323.23 M0.17 0.71 C-8.16 -53.19, -42.74 -267.97, -51.51 -321.9" stroke="#000000" stroke-width="1" fill="none"></path></g><g transform="translate(2345.2867627624005 659.1138941477216) rotate(0 -26.423686990887063 -161.0367792467276)"><path d="M-34.96 -296.67 C-40.92 -299.46, -44.91 -307.94, -53.25 -323.1 M-37.79 -294.98 C-41.91 -304.47, -46.86 -314.17, -50.67 -322.53" stroke="#000000" stroke-width="1" fill="none"></path></g><g transform="translate(2345.2867627624005 659.1138941477216) rotate(0 -26.423686990887063 -161.0367792467276)"><path d="M-55.22 -293.4 C-56.78 -297.08, -56.36 -306.27, -53.25 -323.1 M-58.05 -291.71 C-54.94 -302.3, -52.7 -313.17, -50.67 -322.53" stroke="#000000" stroke-width="1" fill="none"></path></g></g><g transform="translate(68.75248015872978 10) rotate(0 245.49999999999994 22.5)"><text x="0" y="32" font-family="Virgil, Segoe UI Emoji" font-size="36px" fill="#000000" text-anchor="start" style="white-space: pre;" direction="ltr">1. Find items in the viewport</text></g><g transform="translate(1000.7524801587294 19) rotate(0 366.5000000000001 22.5)"><text x="0" y="32" font-family="Virgil, Segoe UI Emoji" font-size="36px" fill="#000000" text-anchor="start" style="white-space: pre;" direction="ltr">2. Copy and reparent them to the player</text></g><g stroke-linecap="round"><g transform="translate(1519.5649801587297 485.9999999999999) rotate(0 9.291257178783553 -4.110103832972243)"><path d="M-0.42 -1.11 C2.83 -2.72, 16.07 -8.11, 19 -9.13 M1.56 0.91 C4.78 -0.63, 15.56 -6.5, 18.58 -8.19" stroke="#000000" stroke-width="1" fill="none"></path></g><g transform="translate(1519.5649801587297 485.9999999999999) rotate(0 9.291257178783553 -4.110103832972243)"><path d="M11.18 0.04 C12.81 -3.33, 16.01 -5.35, 19.13 -8.66 M12.05 -0.32 C13.42 -2.7, 15.46 -3.88, 18.43 -8.41" stroke="#000000" stroke-width="1" fill="none"></path></g><g transform="translate(1519.5649801587297 485.9999999999999) rotate(0 9.291257178783553 -4.110103832972243)"><path d="M7.93 -5.86 C10.42 -7.7, 14.46 -8.19, 19.13 -8.66 M8.8 -6.22 C10.88 -7.23, 13.67 -7.04, 18.43 -8.41" stroke="#000000" stroke-width="1" fill="none"></path></g></g><g transform="translate(1942.7524801587297 21) rotate(0 336 45)"><text x="0" y="32" font-family="Virgil, Segoe UI Emoji" font-size="36px" fill="#000000" text-anchor="start" style="white-space: pre;" direction="ltr">3. Later, reparent back to the scene</text><text x="0" y="77" font-family="Virgil, Segoe UI Emoji" font-size="36px" fill="#000000" text-anchor="start" style="white-space: pre;" direction="ltr">   somewhere else</text></g></svg>